<?xml version="1.0" encoding="UTF-8" standalone="no"?>

<svg version="1.1" xmlns="http://www.w3.org/2000/svg"
xmlns:xlink="http://www.w3.org/1999/xlink" 
xmlns:psvg="http://www.paintersvg.com/namespace.html" 
id="null"  width="352" height="302">
 <defs>
   <style type="text/css">

    @import url('https://fonts.googleapis.com/css?family=Roboto:400,100,100italic,300,300italic,400italic,500,500italic,700,700italic,900,900italic');

 </style>
   <linearGradient id="gradient" x1="0" x2="0" y1="0" y2="1">
        <stop offset="0%" stop-color="#D88000"/>
        <stop offset="50%" stop-color="#907818"/>
        <stop offset="100%" stop-color="yellow"/>
   </linearGradient>
   <filter id="shadow">
      <feDropShadow dx="0" dy="0" stdDeviation="10"
          flood-color="#489880" flood-opacity="0.8"/>
   </filter>
   <filter id="shadow1">
      <feDropShadow height="150%" width="150%" dx="0" dy="0" stdDeviation="1"
          flood-color="orchid" flood-opacity="1"/>
   </filter>
 </defs>
 <rect x="calc(50% - 100px)" y="calc(50% - 100px)" 
 id="sqr" width="200px" height="200px" rx="20px"></rect> 
 
 <path d="M 1 6 Q 1 1, 6 1 L 346 1 Q 351 1, 351 6
 L 351 296 Q 351 301, 346 301 L 6 301
 Q 1 301, 1 296 L 1 6 Z"
stroke-width="0.7" stroke="white" fill="none"
/>

 <svg id="glass" x="calc(50% - 50px)"
y="calc(50% - 50px - 50px)"
 width="350" height="350" 
 viewBox="0 0 1792 1792"
 preserveAspectRatio="xMidYMid meet">

<g id="bb">
<g transform="translate(0, 512)
 scale(0.1,-0.1)">
<path id="face" d="M2325 4770 c-126 -11 -408 -64 -496 -93 -41 -13 -96 -31 -124 -40
-68 -21 -184 -70 -280 -118 -410 -207 -727 -516 -918 -894 -365 -723 -322
-1676 106 -2320 362 -546 977 -895 1702 -965 128 -12 372 -12 500 0 135 13
448 73 470 89 5 4 33 14 60 20 76 20 217 77 349 143 428 212 760 546 962 967
104 217 183 514 205 776 12 149 7 437 -11 560 -13 90 -60 304 -70 324 -5 9
-25 67 -45 129 -73 226 -147 366 -297 564 -144 191 -379 400 -583 521 -90 53
-249 134 -290 147 -22 7 -49 18 -61 25 -11 8 -61 25 -110 40 -49 14 -97 30
-106 35 -18 10 -279 63 -393 80 -94 14 -458 21 -570 10z"/>
<path id="glsses" fill="white" d="M425 3634 c-104 -12 -196 -23 -202 -23 -10 -1 -13 -40 -13 -161 0
-120 3 -162 13 -164 43 -13 105 -39 122 -52 18 -13 21 -31 27 -162 13 -281 23
-340 86 -507 80 -214 263 -374 494 -430 226 -54 554 -35 786 47 328 115 533
356 586 685 37 236 132 350 271 329 112 -18 178 -119 211 -324 65 -407 347
-667 809 -747 145 -26 399 -24 526 3 107 22 242 80 314 136 85 64 170 175 205
267 11 30 25 63 30 74 40 87 59 208 68 439 7 158 9 177 27 190 17 13 80 39
123 52 9 2 12 44 12 163 l0 159 -42 6 c-277 38 -339 41 -948 41 -507 0 -627
-3 -740 -17 -340 -43 -816 -48 -1135 -13 -283 31 -381 35 -905 33 -492 -1
-550 -3 -725 -24z m646 -263 c37 -37 38 -79 4 -119 -13 -16 -39 -35 -57 -42
-82 -32 -128 -91 -143 -180 -13 -80 -29 -108 -73 -121 -33 -9 -45 -9 -75 6
-46 22 -62 61 -61 155 3 192 131 328 312 329 57 1 66 -2 93 -28z m2478 14 c32
-16 41 -33 41 -79 0 -46 -19 -67 -95 -105 -79 -40 -111 -82 -124 -162 -17
-100 -35 -126 -93 -135 -41 -6 -94 24 -109 64 -6 15 -9 65 -6 118 3 76 9 100
33 143 37 68 113 137 173 155 61 19 145 20 180 1z"/>
<path id="smile" d="M1708 1973 c-49 -31 -63 -105 -32 -178 53 -128 325 -310 544 -366
176 -44 229 -51 385 -46 129 4 167 9 270 37 134 36 277 99 376 166 81 54 184
160 204 208 32 76 11 163 -44 186 -36 14 -62 11 -196 -23 -242 -62 -325 -71
-650 -72 -285 0 -307 2 -445 28 -80 15 -185 38 -235 52 -105 29 -140 31 -177
8z"/>
</g>
</g>

</svg>
<!--
 <image x="calc(50% - 1.5ch)" y="calc(50% - 1.5ch)"
        href="https://github.com/fagner02/fagner02/blob/042da7ef9ef951689813670e409e1a5609ea4d6e/sunglasses.png" width="3ch"> </image>
 -->
<text id="text" text-anchor="middle" 
 dominant-baseline="middle" x="50%" y="55%">
  Coding
   <!--<tspan id="emote" x="50%" dy="3ch">😎</tspan>
   <tspan id="span" x="50%" dy="3ch">Coding</tspan>
-->
   <!--
     <tspan x="50%" dy="2ch">&gt;.&lt;</tspan>
   -->
 </text> 
 <style>
  
  @font-face {
    font-family: fifteen;
    src: url('https://github.com/fagner02/fagner02/blob/9324a5ceb74c7ec02678b6aebc72f341345a7b30/Fifteen-Regular.ttf');
  }
  * {
    font-family: fifteen, roboto;
  }
  
  #glass {
    fill: none;
    stroke: white;
    stroke-width: 60px;
    transform-origin: center;
    transform-box: fill-box;
    transform-style: preserve-3d;
    animation: smile 10s infinite linear;
  }
  #smile {
    stroke: none;
    fill: white;
    çanimation: icon 0.3s infinite;
    transform-origin: left;
    transform-box: fill-box;
    transform-style: preserve-3d;
    
  }
  #smilep {
    
  }
  #face {
    fill: url(#gradient);
    stroke: #489880;
  }
  #text {
    font-size: 30px;
    font-weight: 900;
    fill: none;
    
    stroke: white;
    stroke-width: 1px;
    stroke-dasharray: 100%;
    stroke-dashoffset: 100%;
    animation: text1 10s infinite linear;
    transform-origin: center;
    transform-style: preserve-3d;
    transform-box: fill-box;
  }
  #span {
    filter: url(#shadow1);
  }
  #emote {
    opacity: 0;
    filter: url(#shadow);
    font-size: 60px;
    animation: smile 10s infinite linear;
  }
  #sqr {
    fill: #203850;
    
    transform-origin: center;
    transform-box: fill-box;
    animation: rotation 5s infinite linear;
  }
  @keyframes rotation {
    0% {
      transform: rotate(0deg);
    }
    100% {
      transform: rotate(90deg);
    }
  }
  @keyframes text1 {
    0% {
      stroke-dashoffset: 100%;
    }
    50% {
      stroke-dashoffset: 100%;
    }
    80% {
      stroke-dashoffset: 0;
    }
    100% {
      stroke-dashoffset: 100%;
    }
  }
  @keyframes icon {
    0% {
      stroke-dashoffset: 2500%;
    }
    50% {
      stroke-dashoffset: 2500%;
    }
    75% {
      stroke-dashoffset: 0;
    }
    100% {
      stroke-dashoffset: 2500%;
    }
  }
  @keyframes smile {
    0% {
      fill: transparent;
      transform: perspective(500px) 
      rotateX(90deg);
    }
    60% {
      transform: perspective(500px) 
      rotateX(90deg);
    }
    62% {
      transform: perspective(500px) 
      rotateX(0deg);
    }
    98% {
      transform: perspective(500px) 
      rotateX(0deg);
    }
    100% {
      transform: perspective(500px)
      rotateX(-90deg);
    }
  }
  @keyframes smile {
    0% {
      opacity: 0;
    }
    50% {
      opacity: 0;
    }
    52% {
      opacity: 1;
    }
    98% {
      opacity: 1;
    }
    100% {
      opacity: 0;
    }
  }
 </style>
</svg>
